<svg width="89" height="112" viewBox="0 0 89 112" fill="none" xmlns="http://www.w3.org/2000/svg">
<path fill-rule="evenodd" clip-rule="evenodd" d="M1.99252 20H2.00748C3.66085 20 5 18.656 5 17C5 15.344 3.66085 14 2.00748 14H1.99252C0.340648 14 -1 15.344 -1 17C-1 18.656 0.340648 20 1.99252 20Z" fill="#130D3A"/>
<path fill-rule="evenodd" clip-rule="evenodd" d="M19 20C19.789 20 20.563 19.6805 21.121 19.121C21.6805 18.563 22 17.7905 22 17C22 16.2095 21.6805 15.437 21.121 14.879C20.563 14.3195 19.789 14 19 14C18.2095 14 17.437 14.3195 16.8775 14.879C16.3195 15.437 16 16.2095 16 17C16 17.7905 16.3195 18.563 16.8775 19.121C17.437 19.6805 18.2095 20 19 20Z" fill="#130D3A"/>
<path fill-rule="evenodd" clip-rule="evenodd" d="M36 20C36.7905 20 37.563 19.6805 38.1225 19.121C38.6805 18.563 39 17.7905 39 17C39 16.2095 38.6805 15.437 38.1225 14.879C37.563 14.3195 36.7905 14 36 14C35.211 14 34.437 14.3195 33.879 14.879C33.3195 15.437 33 16.2095 33 17C33 17.7905 33.3195 18.563 33.879 19.121C34.437 19.6805 35.211 20 36 20Z" fill="#130D3A"/>
<path fill-rule="evenodd" clip-rule="evenodd" d="M68.9925 20H69.0075C70.6608 20 72 18.656 72 17C72 15.344 70.6608 14 69.0075 14H68.9925C67.3406 14 66 15.344 66 17C66 18.656 67.3406 20 68.9925 20Z" fill="#130D3A"/>
<path fill-rule="evenodd" clip-rule="evenodd" d="M51.9925 20H52.0075C53.6594 20 55 18.656 55 17C55 15.344 53.6594 14 52.0075 14H51.9925C50.3406 14 49 15.344 49 17C49 18.656 50.3406 20 51.9925 20Z" fill="#130D3A"/>
<mask id="mask0_1_230" style="mask-type:luminance" maskUnits="userSpaceOnUse" x="82" y="13" width="7" height="8">
<path fill-rule="evenodd" clip-rule="evenodd" d="M82.3027 13.7878H88.7024V20.1878H82.3027V13.7878Z" fill="white"/>
</mask>
<g mask="url(#mask0_1_230)">
<path fill-rule="evenodd" clip-rule="evenodd" d="M85.5027 20.1878C86.3443 20.1878 87.1699 19.847 87.7651 19.2502C88.3619 18.655 88.7027 17.831 88.7027 16.9878C88.7027 16.1446 88.3619 15.3206 87.7651 14.7254C87.1699 14.1286 86.3443 13.7878 85.5027 13.7878C84.6595 13.7878 83.8355 14.1286 83.2387 14.7254C82.6435 15.3206 82.3027 16.1446 82.3027 16.9878C82.3027 17.831 82.6435 18.655 83.2387 19.2502C83.8355 19.847 84.6595 20.1878 85.5027 20.1878Z" fill="#130D3A"/>
</g>
<path fill-rule="evenodd" clip-rule="evenodd" d="M1.99252 7H2.00748C3.66085 7 5 5.656 5 4C5 2.344 3.66085 1 2.00748 1H1.99252C0.340648 1 -1 2.344 -1 4C-1 5.656 0.340648 7 1.99252 7Z" fill="#130D3A"/>
<path fill-rule="evenodd" clip-rule="evenodd" d="M19 7C19.789 7 20.563 6.6805 21.121 6.121C21.6805 5.563 22 4.789 22 4C22 3.2095 21.6805 2.437 21.121 1.8775C20.563 1.3195 19.789 1 19 1C18.2095 1 17.437 1.3195 16.8775 1.8775C16.3195 2.437 16 3.2095 16 4C16 4.789 16.3195 5.563 16.8775 6.121C17.437 6.6805 18.2095 7 19 7Z" fill="#130D3A"/>
<path fill-rule="evenodd" clip-rule="evenodd" d="M36 7C36.7905 7 37.563 6.6805 38.1225 6.121C38.6805 5.563 39 4.789 39 4C39 3.2095 38.6805 2.437 38.1225 1.8775C37.563 1.3195 36.7905 1 36 1C35.211 1 34.437 1.3195 33.879 1.8775C33.3195 2.437 33 3.2095 33 4C33 4.789 33.3195 5.563 33.879 6.121C34.437 6.6805 35.211 7 36 7Z" fill="#130D3A"/>
<path fill-rule="evenodd" clip-rule="evenodd" d="M68.9925 7H69.0075C70.6608 7 72 5.656 72 4C72 2.344 70.6608 1 69.0075 1H68.9925C67.3406 1 66 2.344 66 4C66 5.656 67.3406 7 68.9925 7Z" fill="#130D3A"/>
<path fill-rule="evenodd" clip-rule="evenodd" d="M51.9925 7H52.0075C53.6594 7 55 5.656 55 4C55 2.344 53.6594 1 52.0075 1H51.9925C50.3406 1 49 2.344 49 4C49 5.656 50.3406 7 51.9925 7Z" fill="#130D3A"/>
<mask id="mask1_1_230" style="mask-type:luminance" maskUnits="userSpaceOnUse" x="82" y="0" width="7" height="7">
<path fill-rule="evenodd" clip-rule="evenodd" d="M82.3027 0.443207H88.7024V6.84321H82.3027V0.443207Z" fill="white"/>
</mask>
<g mask="url(#mask1_1_230)">
<path fill-rule="evenodd" clip-rule="evenodd" d="M85.5027 6.84321C86.3443 6.84321 87.1699 6.50241 87.7651 5.90561C88.3619 5.31041 88.7027 4.48481 88.7027 3.64321C88.7027 2.80001 88.3619 1.97601 87.7651 1.37921C87.1699 0.784007 86.3443 0.443207 85.5027 0.443207C84.6595 0.443207 83.8355 0.784007 83.2387 1.37921C82.6435 1.97601 82.3027 2.80001 82.3027 3.64321C82.3027 4.48481 82.6435 5.31041 83.2387 5.90561C83.8355 6.50241 84.6595 6.84321 85.5027 6.84321Z" fill="#130D3A"/>
</g>
<path fill-rule="evenodd" clip-rule="evenodd" d="M1.99252 33H2.00748C3.66085 33 5 31.656 5 30C5 28.344 3.66085 27 2.00748 27H1.99252C0.340648 27 -1 28.344 -1 30C-1 31.656 0.340648 33 1.99252 33Z" fill="#130D3A"/>
<path fill-rule="evenodd" clip-rule="evenodd" d="M19 33C19.789 33 20.563 32.6805 21.121 32.121C21.6805 31.563 22 30.7905 22 30C22 29.211 21.6805 28.437 21.121 27.879C20.563 27.3195 19.789 27 19 27C18.2095 27 17.437 27.3195 16.8775 27.879C16.3195 28.437 16 29.211 16 30C16 30.7905 16.3195 31.563 16.8775 32.121C17.437 32.6805 18.2095 33 19 33Z" fill="#130D3A"/>
<path fill-rule="evenodd" clip-rule="evenodd" d="M36 33C36.7905 33 37.563 32.6805 38.1225 32.121C38.6805 31.563 39 30.7905 39 30C39 29.211 38.6805 28.437 38.1225 27.879C37.563 27.3195 36.7905 27 36 27C35.211 27 34.437 27.3195 33.879 27.879C33.3195 28.437 33 29.211 33 30C33 30.7905 33.3195 31.563 33.879 32.121C34.437 32.6805 35.211 33 36 33Z" fill="#130D3A"/>
<path fill-rule="evenodd" clip-rule="evenodd" d="M68.9925 33H69.0075C70.6608 33 72 31.656 72 30C72 28.344 70.6608 27 69.0075 27H68.9925C67.3406 27 66 28.344 66 30C66 31.656 67.3406 33 68.9925 33Z" fill="#130D3A"/>
<path fill-rule="evenodd" clip-rule="evenodd" d="M51.9925 33H52.0075C53.6594 33 55 31.656 55 30C55 28.344 53.6594 27 52.0075 27H51.9925C50.3406 27 49 28.344 49 30C49 31.656 50.3406 33 51.9925 33Z" fill="#130D3A"/>
<mask id="mask2_1_230" style="mask-type:luminance" maskUnits="userSpaceOnUse" x="82" y="27" width="7" height="7">
<path fill-rule="evenodd" clip-rule="evenodd" d="M82.3027 27.1323H88.7024V33.5323H82.3027V27.1323Z" fill="white"/>
</mask>
<g mask="url(#mask2_1_230)">
<path fill-rule="evenodd" clip-rule="evenodd" d="M85.5027 33.5323C86.3443 33.5323 87.1699 33.1915 87.7651 32.5947C88.3619 31.9995 88.7027 31.1755 88.7027 30.3323C88.7027 29.4907 88.3619 28.6651 87.7651 28.0699C87.1699 27.4731 86.3443 27.1323 85.5027 27.1323C84.6595 27.1323 83.8355 27.4731 83.2387 28.0699C82.6435 28.6651 82.3027 29.4907 82.3027 30.3323C82.3027 31.1755 82.6435 31.9995 83.2387 32.5947C83.8355 33.1915 84.6595 33.5323 85.5027 33.5323Z" fill="#130D3A"/>
</g>
<path fill-rule="evenodd" clip-rule="evenodd" d="M1.99252 46H2.00748C3.66085 46 5 44.656 5 43C5 41.344 3.66085 40 2.00748 40H1.99252C0.340648 40 -1 41.344 -1 43C-1 44.656 0.340648 46 1.99252 46Z" fill="#130D3A"/>
<path fill-rule="evenodd" clip-rule="evenodd" d="M19 46C19.789 46 20.563 45.6805 21.121 45.121C21.6805 44.563 22 43.7905 22 43C22 42.2095 21.6805 41.437 21.121 40.879C20.563 40.3195 19.789 40 19 40C18.2095 40 17.437 40.3195 16.8775 40.879C16.3195 41.437 16 42.2095 16 43C16 43.7905 16.3195 44.563 16.8775 45.121C17.437 45.6805 18.2095 46 19 46Z" fill="#130D3A"/>
<path fill-rule="evenodd" clip-rule="evenodd" d="M36 46C36.7905 46 37.563 45.6805 38.1225 45.121C38.6805 44.563 39 43.7905 39 43C39 42.2095 38.6805 41.437 38.1225 40.879C37.563 40.3195 36.7905 40 36 40C35.211 40 34.437 40.3195 33.879 40.879C33.3195 41.437 33 42.2095 33 43C33 43.7905 33.3195 44.563 33.879 45.121C34.437 45.6805 35.211 46 36 46Z" fill="#130D3A"/>
<path fill-rule="evenodd" clip-rule="evenodd" d="M68.9925 46H69.0075C70.6608 46 72 44.656 72 43C72 41.344 70.6608 40 69.0075 40H68.9925C67.3406 40 66 41.344 66 43C66 44.656 67.3406 46 68.9925 46Z" fill="#130D3A"/>
<path fill-rule="evenodd" clip-rule="evenodd" d="M51.9925 46H52.0075C53.6594 46 55 44.656 55 43C55 41.344 53.6594 40 52.0075 40H51.9925C50.3406 40 49 41.344 49 43C49 44.656 50.3406 46 51.9925 46Z" fill="#130D3A"/>
<mask id="mask3_1_230" style="mask-type:luminance" maskUnits="userSpaceOnUse" x="82" y="40" width="7" height="7">
<path fill-rule="evenodd" clip-rule="evenodd" d="M82.3027 40.4768H88.7024V46.8768H82.3027V40.4768Z" fill="white"/>
</mask>
<g mask="url(#mask3_1_230)">
<path fill-rule="evenodd" clip-rule="evenodd" d="M85.5027 46.8768C86.3443 46.8768 87.1699 46.536 87.7651 45.9392C88.3619 45.344 88.7027 44.52 88.7027 43.6768C88.7027 42.8336 88.3619 42.0096 87.7651 41.4144C87.1699 40.8176 86.3443 40.4768 85.5027 40.4768C84.6595 40.4768 83.8355 40.8176 83.2387 41.4144C82.6435 42.0096 82.3027 42.8336 82.3027 43.6768C82.3027 44.52 82.6435 45.344 83.2387 45.9392C83.8355 46.536 84.6595 46.8768 85.5027 46.8768Z" fill="#130D3A"/>
</g>
<path fill-rule="evenodd" clip-rule="evenodd" d="M1.99252 60H2.00748C3.66085 60 5 58.656 5 57C5 55.344 3.66085 54 2.00748 54H1.99252C0.340648 54 -1 55.344 -1 57C-1 58.656 0.340648 60 1.99252 60Z" fill="#130D3A"/>
<path fill-rule="evenodd" clip-rule="evenodd" d="M19 60C19.789 60 20.563 59.6805 21.121 59.121C21.6805 58.563 22 57.7905 22 57C22 56.211 21.6805 55.437 21.121 54.879C20.563 54.3195 19.789 54 19 54C18.2095 54 17.437 54.3195 16.8775 54.879C16.3195 55.437 16 56.211 16 57C16 57.7905 16.3195 58.563 16.8775 59.121C17.437 59.6805 18.2095 60 19 60Z" fill="#130D3A"/>
<path fill-rule="evenodd" clip-rule="evenodd" d="M36 60C36.7905 60 37.563 59.6805 38.1225 59.121C38.6805 58.563 39 57.7905 39 57C39 56.211 38.6805 55.437 38.1225 54.879C37.563 54.3195 36.7905 54 36 54C35.211 54 34.437 54.3195 33.879 54.879C33.3195 55.437 33 56.211 33 57C33 57.7905 33.3195 58.563 33.879 59.121C34.437 59.6805 35.211 60 36 60Z" fill="#130D3A"/>
<path fill-rule="evenodd" clip-rule="evenodd" d="M68.9925 60H69.0075C70.6608 60 72 58.656 72 57C72 55.344 70.6608 54 69.0075 54H68.9925C67.3406 54 66 55.344 66 57C66 58.656 67.3406 60 68.9925 60Z" fill="#130D3A"/>
<path fill-rule="evenodd" clip-rule="evenodd" d="M51.9925 60H52.0075C53.6594 60 55 58.656 55 57C55 55.344 53.6594 54 52.0075 54H51.9925C50.3406 54 49 55.344 49 57C49 58.656 50.3406 60 51.9925 60Z" fill="#130D3A"/>
<mask id="mask4_1_230" style="mask-type:luminance" maskUnits="userSpaceOnUse" x="82" y="53" width="7" height="7">
<path fill-rule="evenodd" clip-rule="evenodd" d="M82.3027 53.2215H88.7024V59.6215H82.3027V53.2215Z" fill="white"/>
</mask>
<g mask="url(#mask4_1_230)">
<path fill-rule="evenodd" clip-rule="evenodd" d="M85.5027 59.6215C86.3443 59.6215 87.1699 59.2807 87.7651 58.6839C88.3619 58.0887 88.7027 57.2647 88.7027 56.4215C88.7027 55.5799 88.3619 54.7543 87.7651 54.1591C87.1699 53.5623 86.3443 53.2215 85.5027 53.2215C84.6595 53.2215 83.8355 53.5623 83.2387 54.1591C82.6435 54.7543 82.3027 55.5799 82.3027 56.4215C82.3027 57.2647 82.6435 58.0887 83.2387 58.6839C83.8355 59.2807 84.6595 59.6215 85.5027 59.6215Z" fill="#130D3A"/>
</g>
<path fill-rule="evenodd" clip-rule="evenodd" d="M1.99252 73H2.00748C3.66085 73 5 71.656 5 70C5 68.344 3.66085 67 2.00748 67H1.99252C0.340648 67 -1 68.344 -1 70C-1 71.656 0.340648 73 1.99252 73Z" fill="#130D3A"/>
<path fill-rule="evenodd" clip-rule="evenodd" d="M19 73C19.789 73 20.563 72.6805 21.121 72.1225C21.6805 71.563 22 70.7905 22 70C22 69.211 21.6805 68.437 21.121 67.879C20.563 67.3195 19.789 67 19 67C18.2095 67 17.437 67.3195 16.8775 67.879C16.3195 68.437 16 69.211 16 70C16 70.7905 16.3195 71.563 16.8775 72.1225C17.437 72.6805 18.2095 73 19 73Z" fill="#130D3A"/>
<path fill-rule="evenodd" clip-rule="evenodd" d="M36 73C36.7905 73 37.563 72.6805 38.1225 72.1225C38.6805 71.563 39 70.7905 39 70C39 69.211 38.6805 68.437 38.1225 67.879C37.563 67.3195 36.7905 67 36 67C35.211 67 34.437 67.3195 33.879 67.879C33.3195 68.437 33 69.211 33 70C33 70.7905 33.3195 71.563 33.879 72.1225C34.437 72.6805 35.211 73 36 73Z" fill="#130D3A"/>
<path fill-rule="evenodd" clip-rule="evenodd" d="M68.9925 73H69.0075C70.6608 73 72 71.656 72 70C72 68.344 70.6608 67 69.0075 67H68.9925C67.3406 67 66 68.344 66 70C66 71.656 67.3406 73 68.9925 73Z" fill="#130D3A"/>
<path fill-rule="evenodd" clip-rule="evenodd" d="M51.9925 73H52.0075C53.6594 73 55 71.656 55 70C55 68.344 53.6594 67 52.0075 67H51.9925C50.3406 67 49 68.344 49 70C49 71.656 50.3406 73 51.9925 73Z" fill="#130D3A"/>
<mask id="mask5_1_230" style="mask-type:luminance" maskUnits="userSpaceOnUse" x="82" y="66" width="7" height="7">
<path fill-rule="evenodd" clip-rule="evenodd" d="M82.3027 66.5659H88.7024V72.9659H82.3027V66.5659Z" fill="white"/>
</mask>
<g mask="url(#mask5_1_230)">
<path fill-rule="evenodd" clip-rule="evenodd" d="M85.5027 72.9659C86.3443 72.9659 87.1699 72.6251 87.7651 72.0299C88.3619 71.4331 88.7027 70.6091 88.7027 69.7659C88.7027 68.9243 88.3619 68.0987 87.7651 67.5035C87.1699 66.9067 86.3443 66.5659 85.5027 66.5659C84.6595 66.5659 83.8355 66.9067 83.2387 67.5035C82.6435 68.0987 82.3027 68.9243 82.3027 69.7659C82.3027 70.6091 82.6435 71.4331 83.2387 72.0299C83.8355 72.6251 84.6595 72.9659 85.5027 72.9659Z" fill="#130D3A"/>
</g>
<path fill-rule="evenodd" clip-rule="evenodd" d="M1.99252 86H2.00748C3.66085 86 5 84.656 5 83C5 81.344 3.66085 80 2.00748 80H1.99252C0.340648 80 -1 81.344 -1 83C-1 84.656 0.340648 86 1.99252 86Z" fill="#130D3A"/>
<path fill-rule="evenodd" clip-rule="evenodd" d="M19 86C19.789 86 20.563 85.6805 21.121 85.121C21.6805 84.563 22 83.7905 22 83C22 82.211 21.6805 81.437 21.121 80.879C20.563 80.3195 19.789 80 19 80C18.2095 80 17.437 80.3195 16.8775 80.879C16.3195 81.437 16 82.211 16 83C16 83.7905 16.3195 84.563 16.8775 85.121C17.437 85.6805 18.2095 86 19 86Z" fill="#130D3A"/>
<path fill-rule="evenodd" clip-rule="evenodd" d="M36 86C36.7905 86 37.563 85.6805 38.1225 85.121C38.6805 84.563 39 83.7905 39 83C39 82.211 38.6805 81.437 38.1225 80.879C37.563 80.3195 36.7905 80 36 80C35.211 80 34.437 80.3195 33.879 80.879C33.3195 81.437 33 82.211 33 83C33 83.7905 33.3195 84.563 33.879 85.121C34.437 85.6805 35.211 86 36 86Z" fill="#130D3A"/>
<path fill-rule="evenodd" clip-rule="evenodd" d="M68.9925 86H69.0075C70.6608 86 72 84.656 72 83C72 81.344 70.6608 80 69.0075 80H68.9925C67.3406 80 66 81.344 66 83C66 84.656 67.3406 86 68.9925 86Z" fill="#130D3A"/>
<path fill-rule="evenodd" clip-rule="evenodd" d="M51.9925 86H52.0075C53.6594 86 55 84.656 55 83C55 81.344 53.6594 80 52.0075 80H51.9925C50.3406 80 49 81.344 49 83C49 84.656 50.3406 86 51.9925 86Z" fill="#130D3A"/>
<mask id="mask6_1_230" style="mask-type:luminance" maskUnits="userSpaceOnUse" x="82" y="79" width="7" height="8">
<path fill-rule="evenodd" clip-rule="evenodd" d="M82.3027 79.9104H88.7024V86.3104H82.3027V79.9104Z" fill="white"/>
</mask>
<g mask="url(#mask6_1_230)">
<path fill-rule="evenodd" clip-rule="evenodd" d="M85.5027 86.3104C86.3443 86.3104 87.1699 85.9696 87.7651 85.3728C88.3619 84.7776 88.7027 83.9536 88.7027 83.1104C88.7027 82.2688 88.3619 81.4432 87.7651 80.848C87.1699 80.2512 86.3443 79.9104 85.5027 79.9104C84.6595 79.9104 83.8355 80.2512 83.2387 80.848C82.6435 81.4432 82.3027 82.2688 82.3027 83.1104C82.3027 83.9536 82.6435 84.7776 83.2387 85.3728C83.8355 85.9696 84.6595 86.3104 85.5027 86.3104Z" fill="#130D3A"/>
</g>
<path fill-rule="evenodd" clip-rule="evenodd" d="M1.99252 99H2.00748C3.66085 99 5 97.6575 5 96C5 94.344 3.66085 93 2.00748 93H1.99252C0.340648 93 -1 94.344 -1 96C-1 97.6575 0.340648 99 1.99252 99Z" fill="#130D3A"/>
<path fill-rule="evenodd" clip-rule="evenodd" d="M19 99C19.789 99 20.563 98.6805 21.121 98.1225C21.6805 97.563 22 96.7905 22 96C22 95.211 21.6805 94.437 21.121 93.879C20.563 93.3195 19.789 93 19 93C18.2095 93 17.437 93.3195 16.8775 93.879C16.3195 94.437 16 95.211 16 96C16 96.7905 16.3195 97.563 16.8775 98.1225C17.437 98.6805 18.2095 99 19 99Z" fill="#130D3A"/>
<path fill-rule="evenodd" clip-rule="evenodd" d="M36 99C36.7905 99 37.563 98.6805 38.1225 98.1225C38.6805 97.563 39 96.7905 39 96C39 95.211 38.6805 94.437 38.1225 93.879C37.563 93.3195 36.7905 93 36 93C35.211 93 34.437 93.3195 33.879 93.879C33.3195 94.437 33 95.211 33 96C33 96.7905 33.3195 97.563 33.879 98.1225C34.437 98.6805 35.211 99 36 99Z" fill="#130D3A"/>
<path fill-rule="evenodd" clip-rule="evenodd" d="M68.9925 99H69.0075C70.6608 99 72 97.6575 72 96C72 94.344 70.6608 93 69.0075 93H68.9925C67.3406 93 66 94.344 66 96C66 97.6575 67.3406 99 68.9925 99Z" fill="#130D3A"/>
<path fill-rule="evenodd" clip-rule="evenodd" d="M51.9925 99H52.0075C53.6594 99 55 97.6575 55 96C55 94.344 53.6594 93 52.0075 93H51.9925C50.3406 93 49 94.344 49 96C49 97.6575 50.3406 99 51.9925 99Z" fill="#130D3A"/>
<mask id="mask7_1_230" style="mask-type:luminance" maskUnits="userSpaceOnUse" x="82" y="93" width="7" height="7">
<path fill-rule="evenodd" clip-rule="evenodd" d="M82.3027 93.2551H88.7024V99.6551H82.3027V93.2551Z" fill="white"/>
</mask>
<g mask="url(#mask7_1_230)">
<path fill-rule="evenodd" clip-rule="evenodd" d="M85.5027 99.6551C86.3443 99.6551 87.1699 99.3143 87.7651 98.7191C88.3619 98.1223 88.7027 97.2983 88.7027 96.4551C88.7027 95.6135 88.3619 94.7879 87.7651 94.1927C87.1699 93.5959 86.3443 93.2551 85.5027 93.2551C84.6595 93.2551 83.8355 93.5959 83.2387 94.1927C82.6435 94.7879 82.3027 95.6135 82.3027 96.4551C82.3027 97.2983 82.6435 98.1223 83.2387 98.7191C83.8355 99.3143 84.6595 99.6551 85.5027 99.6551Z" fill="#130D3A"/>
</g>
<mask id="mask8_1_230" style="mask-type:luminance" maskUnits="userSpaceOnUse" x="-2" y="106" width="8" height="6">
<path fill-rule="evenodd" clip-rule="evenodd" d="M-1.00751 106H5.40849V112H-1.00751V106Z" fill="white"/>
</mask>
<g mask="url(#mask8_1_230)">
<path fill-rule="evenodd" clip-rule="evenodd" d="M2.19249 112H2.20849C3.97649 112 5.40849 110.656 5.40849 109C5.40849 107.343 3.97649 106 2.20849 106H2.19249C0.426093 106 -1.00751 107.343 -1.00751 109C-1.00751 110.656 0.426093 112 2.19249 112Z" fill="#130D3A"/>
</g>
<mask id="mask9_1_230" style="mask-type:luminance" maskUnits="userSpaceOnUse" x="15" y="106" width="7" height="6">
<path fill-rule="evenodd" clip-rule="evenodd" d="M15.5011 106H21.9011V112H15.5011V106Z" fill="white"/>
</mask>
<g mask="url(#mask9_1_230)">
<path fill-rule="evenodd" clip-rule="evenodd" d="M18.7011 112C19.5427 112 20.3683 111.681 20.9635 111.121C21.5603 110.563 21.9011 109.789 21.9011 109C21.9011 108.21 21.5603 107.437 20.9635 106.878C20.3683 106.32 19.5427 106 18.7011 106C17.8579 106 17.0339 106.32 16.4371 106.878C15.8419 107.437 15.5011 108.21 15.5011 109C15.5011 109.789 15.8419 110.563 16.4371 111.121C17.0339 111.681 17.8579 112 18.7011 112Z" fill="#130D3A"/>
</g>
<mask id="mask10_1_230" style="mask-type:luminance" maskUnits="userSpaceOnUse" x="32" y="106" width="7" height="6">
<path fill-rule="evenodd" clip-rule="evenodd" d="M32.4011 106H38.8011V112H32.4011V106Z" fill="white"/>
</mask>
<g mask="url(#mask10_1_230)">
<path fill-rule="evenodd" clip-rule="evenodd" d="M35.6011 112C36.4443 112 37.2683 111.681 37.8651 111.121C38.4603 110.563 38.8011 109.789 38.8011 109C38.8011 108.21 38.4603 107.437 37.8651 106.878C37.2683 106.32 36.4443 106 35.6011 106C34.7595 106 33.9339 106.32 33.3387 106.878C32.7419 107.437 32.4011 108.21 32.4011 109C32.4011 109.789 32.7419 110.563 33.3387 111.121C33.9339 111.681 34.7595 112 35.6011 112Z" fill="#130D3A"/>
</g>
<mask id="mask11_1_230" style="mask-type:luminance" maskUnits="userSpaceOnUse" x="65" y="106" width="7" height="6">
<path fill-rule="evenodd" clip-rule="evenodd" d="M65.3941 106H71.8101V112H65.3941V106Z" fill="white"/>
</mask>
<g mask="url(#mask11_1_230)">
<path fill-rule="evenodd" clip-rule="evenodd" d="M68.5941 112H68.6101C70.3781 112 71.8101 110.656 71.8101 109C71.8101 107.343 70.3781 106 68.6101 106H68.5941C66.8277 106 65.3941 107.343 65.3941 109C65.3941 110.656 66.8277 112 68.5941 112Z" fill="#130D3A"/>
</g>
<mask id="mask12_1_230" style="mask-type:luminance" maskUnits="userSpaceOnUse" x="48" y="106" width="8" height="6">
<path fill-rule="evenodd" clip-rule="evenodd" d="M48.8941 106H55.3101V112H48.8941V106Z" fill="white"/>
</mask>
<g mask="url(#mask12_1_230)">
<path fill-rule="evenodd" clip-rule="evenodd" d="M52.0941 112H52.1101C53.8765 112 55.3101 110.656 55.3101 109C55.3101 107.343 53.8765 106 52.1101 106H52.0941C50.3277 106 48.8941 107.343 48.8941 109C48.8941 110.656 50.3277 112 52.0941 112Z" fill="#130D3A"/>
</g>
<mask id="mask13_1_230" style="mask-type:luminance" maskUnits="userSpaceOnUse" x="82" y="106" width="7" height="6">
<path fill-rule="evenodd" clip-rule="evenodd" d="M82.3027 106H88.7024V112H82.3027V106Z" fill="white"/>
</mask>
<g mask="url(#mask13_1_230)">
<path fill-rule="evenodd" clip-rule="evenodd" d="M85.5027 112C86.3443 112 87.1699 111.681 87.7651 111.121C88.3619 110.563 88.7027 109.789 88.7027 109C88.7027 108.21 88.3619 107.437 87.7651 106.878C87.1699 106.32 86.3443 106 85.5027 106C84.6595 106 83.8355 106.32 83.2387 106.878C82.6435 107.437 82.3027 108.21 82.3027 109C82.3027 109.789 82.6435 110.563 83.2387 111.121C83.8355 111.681 84.6595 112 85.5027 112Z" fill="#130D3A"/>
</g>
</svg>
