<svg width="18" height="19" viewBox="0 0 18 19" fill="none" xmlns="http://www.w3.org/2000/svg">
<path d="M17.25 0.60498H0.75C0.335786 0.60498 0 0.940767 0 1.35498V17.855C0 18.2692 0.335786 18.605 0.75 18.605H9.61436V11.6344H7.26862V8.91788H9.61436V6.9145C9.61436 4.58958 11.0343 3.32363 13.1083 3.32363C14.1018 3.32363 14.9556 3.39759 15.2044 3.43065V5.86032L13.766 5.86097C12.6381 5.86097 12.4197 6.39696 12.4197 7.18348V8.91788H15.1097L14.7595 11.6344H12.4197V18.605H17.25C17.6642 18.605 18 18.2692 18 17.855V1.35498C18 0.940767 17.6642 0.60498 17.25 0.60498Z" fill="#7D818D"/>
</svg>
