<svg width="18" height="19" viewBox="0 0 18 19" fill="none" xmlns="http://www.w3.org/2000/svg">
<path fill-rule="evenodd" clip-rule="evenodd" d="M0.75 0.60498H17.25C17.6625 0.60498 18 0.94248 18 1.35498V17.855C18 18.2675 17.6625 18.605 17.25 18.605H0.75C0.3375 18.605 0 18.2675 0 17.855V1.35498C0 0.94248 0.3375 0.60498 0.75 0.60498ZM2.6625 15.9425H5.325V7.35498H2.6625V15.9425ZM4.0125 6.19248C3.15 6.19248 2.475 5.51748 2.475 4.65498C2.475 3.79248 3.15 3.11748 4.0125 3.11748C4.875 3.11748 5.55 3.79248 5.55 4.65498C5.55 5.47998 4.875 6.19248 4.0125 6.19248ZM12.675 15.9425H15.3V11.2175C15.3 8.89248 14.8125 7.12998 12.1125 7.12998C10.8375 7.12998 9.9375 7.84248 9.6 8.51748H9.5625V7.35498H7.0125V15.9425H9.675V11.705C9.675 10.58 9.9 9.49248 11.2875 9.49248C12.675 9.49248 12.675 10.7675 12.675 11.78V15.9425Z" fill="#7D818D"/>
</svg>
