<svg width="17" height="16" viewBox="0 0 17 16" fill="none" xmlns="http://www.w3.org/2000/svg">
<path fill-rule="evenodd" clip-rule="evenodd" d="M17 2.34467C16.3625 2.65395 15.6896 2.84725 14.9812 2.96323C15.6896 2.49931 16.2563 1.76477 16.5042 0.875599C15.8313 1.30086 15.0875 1.61014 14.2729 1.80343C13.6354 1.0689 12.7146 0.60498 11.7229 0.60498C9.81042 0.60498 8.25208 2.30601 8.25208 4.39364C8.25208 4.70292 8.2875 4.97354 8.35833 5.24416C5.48958 5.08952 2.90417 3.58178 1.16875 1.2622C0.885417 1.84209 0.708333 2.46065 0.708333 3.15653C0.708333 4.47096 1.31042 5.63075 2.26667 6.32663C1.7 6.28797 1.16875 6.13333 0.672917 5.86271V5.90137C0.672917 7.75704 1.87708 9.30343 3.47083 9.65137C3.1875 9.72869 2.86875 9.76735 2.55 9.76735C2.3375 9.76735 2.08958 9.72869 1.87708 9.69003C2.3375 11.1978 3.6125 12.3189 5.13542 12.3189C3.93125 13.3241 2.44375 13.9426 0.814583 13.9426C0.53125 13.9426 0.247917 13.9426 0 13.9039C1.55833 14.9864 3.36458 15.605 5.34792 15.605C11.7583 15.605 15.2646 9.80601 15.2646 4.78024C15.2646 4.6256 15.2646 4.4323 15.2646 4.27766C15.9375 3.77508 16.5396 3.11787 17 2.34467Z" fill="#68D585"/>
</svg>
