<svg width="18" height="19" viewBox="0 0 18 19" fill="none" xmlns="http://www.w3.org/2000/svg">
<path fill-rule="evenodd" clip-rule="evenodd" d="M5.28937 0.65898C6.24937 0.61548 6.55575 0.60498 9 0.60498C11.4443 0.60498 11.7506 0.61548 12.7106 0.65898C14.1739 0.72573 15.4583 1.08423 16.4895 2.11548C17.5211 3.14711 17.8792 4.43186 17.946 5.89436C17.9895 6.85436 18 7.16073 18 9.60498C18 12.0492 17.9895 12.3556 17.946 13.3156C17.8792 14.7789 17.5208 16.0632 16.4895 17.0945C15.4579 18.1261 14.1727 18.4842 12.7106 18.551C11.7506 18.5945 11.4443 18.605 9 18.605C6.55575 18.605 6.24937 18.5945 5.28937 18.551C3.82612 18.4842 2.54175 18.1257 1.5105 17.0945C0.478875 16.0629 0.12075 14.7781 0.054 13.3156C0.0105 12.3556 0 12.0492 0 9.60498C0 7.16073 0.0105 6.85436 0.054 5.89436C0.12075 4.43111 0.47925 3.14673 1.5105 2.11548C2.54212 1.08386 3.82687 0.72573 5.28937 0.65898ZM12.6368 2.27898C11.6876 2.23548 11.403 2.22648 9 2.22648C6.597 2.22648 6.31238 2.23586 5.36325 2.27898C4.33913 2.32586 3.3885 2.53098 2.65725 3.26223C1.926 3.99348 1.72088 4.94411 1.674 5.96823C1.6305 6.91736 1.6215 7.20198 1.6215 9.60498C1.6215 12.008 1.63087 12.2926 1.674 13.2417C1.72088 14.2659 1.926 15.2165 2.65725 15.9477C3.3885 16.679 4.33913 16.8841 5.36325 16.931C6.312 16.9745 6.59663 16.9835 9 16.9835C11.4034 16.9835 11.688 16.9741 12.6368 16.931C13.6609 16.8841 14.6115 16.679 15.3427 15.9477C16.074 15.2165 16.2791 14.2659 16.326 13.2417C16.3695 12.2926 16.3785 12.008 16.3785 9.60498C16.3785 7.20198 16.3691 6.91736 16.326 5.96823C16.2791 4.94411 16.074 3.99348 15.3427 3.26223C14.6115 2.53098 13.6609 2.32586 12.6368 2.27898Z" fill="#7D818D"/>
<path fill-rule="evenodd" clip-rule="evenodd" d="M4.90909 10.0142C4.90909 7.52901 6.92357 5.51416 9.40909 5.51416C11.8946 5.51416 13.9091 7.52864 13.9091 10.0142C13.9091 12.4997 11.8946 14.5142 9.40909 14.5142C6.92357 14.5142 4.90909 12.4993 4.90909 10.0142ZM6.48796 10.0142C6.48796 11.6274 7.79589 12.9353 9.40909 12.9353C11.0223 12.9353 12.3302 11.6274 12.3302 10.0142C12.3302 8.40097 11.0223 7.09303 9.40909 7.09303C7.79589 7.09303 6.48796 8.40097 6.48796 10.0142Z" fill="#7D818D"/>
<circle cx="13.5" cy="5.10496" r="1.22727" fill="#7D818D"/>
</svg>
